<mxfile host="app.diagrams.net" modified="2021-07-11T05:49:10.116Z" agent="5.0 (Windows NT 10.0; Win64; x64) AppleWebKit/537.36 (KHTML, like Gecko) Chrome/91.0.4472.124 Safari/537.36" etag="SI7HW-bqbEEcigiRHhtY" version="14.8.5" type="github" pages="3">
  <diagram id="HMUfEcPvsCLcHgVx3CYw" name="blobstore">
    <mxGraphModel dx="677" dy="440" grid="1" gridSize="10" guides="1" tooltips="1" connect="1" arrows="1" fold="1" page="1" pageScale="1" pageWidth="827" pageHeight="1169" math="0" shadow="0">
      <root>
        <mxCell id="0" />
        <mxCell id="1" parent="0" />
        <mxCell id="opUjCVgP9MgVqrXwYfAH-7" style="edgeStyle=orthogonalEdgeStyle;curved=1;rounded=0;sketch=1;orthogonalLoop=1;jettySize=auto;html=1;entryX=0;entryY=0.5;entryDx=0;entryDy=0;dashed=1;startArrow=classic;startFill=1;" edge="1" parent="1" source="yjkvnuQAUtMfFMIKTsWW-1" target="opUjCVgP9MgVqrXwYfAH-2">
          <mxGeometry relative="1" as="geometry" />
        </mxCell>
        <mxCell id="yjkvnuQAUtMfFMIKTsWW-1" value="" style="rounded=1;whiteSpace=wrap;html=1;strokeWidth=2;fillWeight=4;hachureGap=8;hachureAngle=45;sketch=1;fillColor=#FFFFFF;" vertex="1" parent="1">
          <mxGeometry x="40" y="40" width="120" height="80" as="geometry" />
        </mxCell>
        <UserObject label="blob" placeholders="1" name="Variable" id="opUjCVgP9MgVqrXwYfAH-1">
          <mxCell style="text;html=1;strokeColor=none;fillColor=none;align=center;verticalAlign=middle;whiteSpace=wrap;overflow=hidden;fillWeight=1;hachureGap=4;" vertex="1" parent="1">
            <mxGeometry x="75" y="40" width="50" height="20" as="geometry" />
          </mxCell>
        </UserObject>
        <mxCell id="opUjCVgP9MgVqrXwYfAH-2" value="" style="rounded=1;whiteSpace=wrap;html=1;strokeWidth=2;fillWeight=4;hachureGap=8;hachureAngle=45;sketch=1;fillColor=#FFFFFF;" vertex="1" parent="1">
          <mxGeometry x="200" y="40" width="120" height="80" as="geometry" />
        </mxCell>
        <mxCell id="opUjCVgP9MgVqrXwYfAH-3" value="blobs" style="rounded=1;whiteSpace=wrap;html=1;strokeWidth=2;fillWeight=4;hachureGap=8;hachureAngle=45;sketch=1;fillColor=#FFFFFF;" vertex="1" parent="1">
          <mxGeometry x="210" y="50" width="120" height="80" as="geometry" />
        </mxCell>
        <mxCell id="opUjCVgP9MgVqrXwYfAH-14" style="edgeStyle=orthogonalEdgeStyle;curved=1;rounded=0;sketch=1;orthogonalLoop=1;jettySize=auto;html=1;exitX=0;exitY=1;exitDx=0;exitDy=0;entryX=0;entryY=0;entryDx=0;entryDy=0;dashed=1;startArrow=classic;startFill=1;" edge="1" parent="1" source="opUjCVgP9MgVqrXwYfAH-5" target="opUjCVgP9MgVqrXwYfAH-9">
          <mxGeometry relative="1" as="geometry" />
        </mxCell>
        <mxCell id="opUjCVgP9MgVqrXwYfAH-15" style="edgeStyle=orthogonalEdgeStyle;curved=1;rounded=0;sketch=1;orthogonalLoop=1;jettySize=auto;html=1;entryX=1;entryY=0;entryDx=0;entryDy=0;dashed=1;startArrow=classic;startFill=1;exitX=0;exitY=1;exitDx=0;exitDy=0;" edge="1" parent="1" source="opUjCVgP9MgVqrXwYfAH-6" target="opUjCVgP9MgVqrXwYfAH-13">
          <mxGeometry relative="1" as="geometry" />
        </mxCell>
        <mxCell id="opUjCVgP9MgVqrXwYfAH-5" value="cluster&lt;br&gt;id" style="rounded=1;whiteSpace=wrap;html=1;strokeWidth=2;fillWeight=1;hachureGap=4;hachureAngle=45;sketch=1;fillColor=#d5e8d4;strokeColor=#82b366;" vertex="1" parent="1">
          <mxGeometry x="60" y="70" width="40" height="40" as="geometry" />
        </mxCell>
        <mxCell id="opUjCVgP9MgVqrXwYfAH-6" value="1M&lt;br&gt;..." style="rounded=1;whiteSpace=wrap;html=1;strokeWidth=2;fillWeight=4;hachureGap=8;hachureAngle=45;sketch=1;fillColor=#FFFFFF;" vertex="1" parent="1">
          <mxGeometry x="100" y="70" width="40" height="40" as="geometry" />
        </mxCell>
        <mxCell id="opUjCVgP9MgVqrXwYfAH-17" style="edgeStyle=orthogonalEdgeStyle;curved=1;rounded=0;sketch=1;orthogonalLoop=1;jettySize=auto;html=1;entryX=0.5;entryY=0;entryDx=0;entryDy=0;dashed=1;startArrow=classic;startFill=1;" edge="1" parent="1" source="opUjCVgP9MgVqrXwYfAH-9" target="opUjCVgP9MgVqrXwYfAH-16">
          <mxGeometry relative="1" as="geometry" />
        </mxCell>
        <mxCell id="opUjCVgP9MgVqrXwYfAH-9" value="page(4K)&lt;br&gt;i" style="rounded=1;whiteSpace=wrap;html=1;strokeWidth=2;fillWeight=4;hachureGap=8;hachureAngle=45;sketch=1;fillColor=#FFFFFF;" vertex="1" parent="1">
          <mxGeometry x="40" y="160" width="80" height="40" as="geometry" />
        </mxCell>
        <mxCell id="opUjCVgP9MgVqrXwYfAH-11" value="i+1" style="rounded=1;whiteSpace=wrap;html=1;strokeWidth=2;fillWeight=4;hachureGap=8;hachureAngle=45;sketch=1;fillColor=#FFFFFF;" vertex="1" parent="1">
          <mxGeometry x="120" y="160" width="80" height="40" as="geometry" />
        </mxCell>
        <mxCell id="opUjCVgP9MgVqrXwYfAH-12" value="..." style="rounded=1;whiteSpace=wrap;html=1;strokeWidth=2;fillWeight=4;hachureGap=8;hachureAngle=45;sketch=1;fillColor=#FFFFFF;" vertex="1" parent="1">
          <mxGeometry x="200" y="160" width="80" height="40" as="geometry" />
        </mxCell>
        <mxCell id="opUjCVgP9MgVqrXwYfAH-43" style="edgeStyle=orthogonalEdgeStyle;curved=1;rounded=0;sketch=1;orthogonalLoop=1;jettySize=auto;html=1;entryX=0;entryY=0;entryDx=0;entryDy=0;startArrow=classic;startFill=1;exitX=0.033;exitY=0.992;exitDx=0;exitDy=0;exitPerimeter=0;dashed=1;" edge="1" parent="1" source="opUjCVgP9MgVqrXwYfAH-13" target="opUjCVgP9MgVqrXwYfAH-39">
          <mxGeometry relative="1" as="geometry" />
        </mxCell>
        <mxCell id="opUjCVgP9MgVqrXwYfAH-44" style="edgeStyle=orthogonalEdgeStyle;curved=1;rounded=0;sketch=1;orthogonalLoop=1;jettySize=auto;html=1;entryX=1;entryY=0;entryDx=0;entryDy=0;dashed=1;startArrow=classic;startFill=1;exitX=1;exitY=1;exitDx=0;exitDy=0;" edge="1" parent="1" source="opUjCVgP9MgVqrXwYfAH-13" target="opUjCVgP9MgVqrXwYfAH-42">
          <mxGeometry relative="1" as="geometry" />
        </mxCell>
        <mxCell id="opUjCVgP9MgVqrXwYfAH-13" value="i+255" style="rounded=1;whiteSpace=wrap;html=1;strokeWidth=2;fillWeight=1;hachureGap=4;hachureAngle=45;sketch=1;fillColor=#dae8fc;strokeColor=#6c8ebf;" vertex="1" parent="1">
          <mxGeometry x="280" y="160" width="80" height="40" as="geometry" />
        </mxCell>
        <mxCell id="opUjCVgP9MgVqrXwYfAH-38" style="edgeStyle=orthogonalEdgeStyle;curved=1;rounded=0;sketch=1;orthogonalLoop=1;jettySize=auto;html=1;entryX=0.125;entryY=0.006;entryDx=0;entryDy=0;entryPerimeter=0;startArrow=classic;startFill=1;" edge="1" parent="1" source="opUjCVgP9MgVqrXwYfAH-16" target="opUjCVgP9MgVqrXwYfAH-21">
          <mxGeometry relative="1" as="geometry" />
        </mxCell>
        <mxCell id="opUjCVgP9MgVqrXwYfAH-16" value="block(4K)&lt;br&gt;(id * i * 4K)" style="rounded=1;whiteSpace=wrap;html=1;strokeWidth=2;fillWeight=4;hachureGap=8;hachureAngle=45;sketch=1;fillColor=#FFFFFF;" vertex="1" parent="1">
          <mxGeometry x="40" y="240" width="80" height="40" as="geometry" />
        </mxCell>
        <mxCell id="opUjCVgP9MgVqrXwYfAH-21" value="" style="rounded=1;whiteSpace=wrap;html=1;strokeWidth=2;fillWeight=1;hachureGap=4;hachureAngle=45;sketch=1;fillColor=#f8cecc;strokeColor=#b85450;" vertex="1" parent="1">
          <mxGeometry x="40" y="320" width="320" height="60" as="geometry" />
        </mxCell>
        <mxCell id="opUjCVgP9MgVqrXwYfAH-22" value="" style="rounded=1;whiteSpace=wrap;html=1;strokeWidth=2;fillWeight=4;hachureGap=8;hachureAngle=45;sketch=1;fillColor=#FFFFFF;" vertex="1" parent="1">
          <mxGeometry x="50" y="350" width="20" height="20" as="geometry" />
        </mxCell>
        <mxCell id="opUjCVgP9MgVqrXwYfAH-28" value="" style="rounded=1;whiteSpace=wrap;html=1;strokeWidth=2;fillWeight=4;hachureGap=8;hachureAngle=45;sketch=1;fillColor=#FFFFFF;" vertex="1" parent="1">
          <mxGeometry x="80" y="350" width="20" height="20" as="geometry" />
        </mxCell>
        <mxCell id="opUjCVgP9MgVqrXwYfAH-29" value="" style="rounded=1;whiteSpace=wrap;html=1;strokeWidth=2;fillWeight=4;hachureGap=8;hachureAngle=45;sketch=1;fillColor=#FFFFFF;" vertex="1" parent="1">
          <mxGeometry x="110" y="350" width="20" height="20" as="geometry" />
        </mxCell>
        <mxCell id="opUjCVgP9MgVqrXwYfAH-30" value="" style="rounded=1;whiteSpace=wrap;html=1;strokeWidth=2;fillWeight=4;hachureGap=8;hachureAngle=45;sketch=1;fillColor=#FFFFFF;" vertex="1" parent="1">
          <mxGeometry x="140" y="350" width="20" height="20" as="geometry" />
        </mxCell>
        <mxCell id="opUjCVgP9MgVqrXwYfAH-31" value="" style="rounded=1;whiteSpace=wrap;html=1;strokeWidth=2;fillWeight=4;hachureGap=8;hachureAngle=45;sketch=1;fillColor=#FFFFFF;" vertex="1" parent="1">
          <mxGeometry x="170" y="350" width="20" height="20" as="geometry" />
        </mxCell>
        <mxCell id="opUjCVgP9MgVqrXwYfAH-32" value="" style="rounded=1;whiteSpace=wrap;html=1;strokeWidth=2;fillWeight=4;hachureGap=8;hachureAngle=45;sketch=1;fillColor=#FFFFFF;" vertex="1" parent="1">
          <mxGeometry x="200" y="350" width="20" height="20" as="geometry" />
        </mxCell>
        <mxCell id="opUjCVgP9MgVqrXwYfAH-33" value="" style="rounded=1;whiteSpace=wrap;html=1;strokeWidth=2;fillWeight=4;hachureGap=8;hachureAngle=45;sketch=1;fillColor=#FFFFFF;" vertex="1" parent="1">
          <mxGeometry x="230" y="350" width="20" height="20" as="geometry" />
        </mxCell>
        <mxCell id="opUjCVgP9MgVqrXwYfAH-34" value="" style="rounded=1;whiteSpace=wrap;html=1;strokeWidth=2;fillWeight=4;hachureGap=8;hachureAngle=45;sketch=1;fillColor=#FFFFFF;" vertex="1" parent="1">
          <mxGeometry x="260" y="350" width="20" height="20" as="geometry" />
        </mxCell>
        <mxCell id="opUjCVgP9MgVqrXwYfAH-35" value="" style="rounded=1;whiteSpace=wrap;html=1;strokeWidth=2;fillWeight=4;hachureGap=8;hachureAngle=45;sketch=1;fillColor=#FFFFFF;" vertex="1" parent="1">
          <mxGeometry x="290" y="350" width="20" height="20" as="geometry" />
        </mxCell>
        <mxCell id="opUjCVgP9MgVqrXwYfAH-36" value="..." style="rounded=1;whiteSpace=wrap;html=1;strokeWidth=2;fillWeight=4;hachureGap=8;hachureAngle=45;sketch=1;fillColor=#FFFFFF;" vertex="1" parent="1">
          <mxGeometry x="320" y="350" width="30" height="20" as="geometry" />
        </mxCell>
        <UserObject label="bdev" placeholders="1" name="Variable" id="opUjCVgP9MgVqrXwYfAH-37">
          <mxCell style="text;html=1;strokeColor=none;fillColor=none;align=center;verticalAlign=middle;whiteSpace=wrap;overflow=hidden;dashed=1;fillWeight=1;hachureGap=4;" vertex="1" parent="1">
            <mxGeometry x="160" y="320" width="80" height="20" as="geometry" />
          </mxCell>
        </UserObject>
        <mxCell id="opUjCVgP9MgVqrXwYfAH-45" style="edgeStyle=orthogonalEdgeStyle;curved=1;rounded=0;sketch=1;orthogonalLoop=1;jettySize=auto;html=1;entryX=0.688;entryY=0;entryDx=0;entryDy=0;entryPerimeter=0;startArrow=classic;startFill=1;" edge="1" parent="1" source="opUjCVgP9MgVqrXwYfAH-39" target="opUjCVgP9MgVqrXwYfAH-21">
          <mxGeometry relative="1" as="geometry" />
        </mxCell>
        <mxCell id="opUjCVgP9MgVqrXwYfAH-39" value="block(512B)&lt;br&gt;(id * (i+255) * 512B)" style="rounded=1;whiteSpace=wrap;html=1;strokeWidth=2;fillWeight=4;hachureGap=8;hachureAngle=45;sketch=1;fillColor=#FFFFFF;" vertex="1" parent="1">
          <mxGeometry x="160" y="240" width="120" height="40" as="geometry" />
        </mxCell>
        <mxCell id="opUjCVgP9MgVqrXwYfAH-46" style="edgeStyle=orthogonalEdgeStyle;curved=1;rounded=0;sketch=1;orthogonalLoop=1;jettySize=auto;html=1;entryX=0.813;entryY=0;entryDx=0;entryDy=0;entryPerimeter=0;startArrow=classic;startFill=1;" edge="1" parent="1" source="opUjCVgP9MgVqrXwYfAH-41" target="opUjCVgP9MgVqrXwYfAH-21">
          <mxGeometry relative="1" as="geometry" />
        </mxCell>
        <mxCell id="opUjCVgP9MgVqrXwYfAH-41" value="..." style="rounded=1;whiteSpace=wrap;html=1;strokeWidth=2;fillWeight=4;hachureGap=8;hachureAngle=45;sketch=1;fillColor=#FFFFFF;" vertex="1" parent="1">
          <mxGeometry x="280" y="240" width="40" height="40" as="geometry" />
        </mxCell>
        <mxCell id="opUjCVgP9MgVqrXwYfAH-47" style="edgeStyle=orthogonalEdgeStyle;curved=1;rounded=0;sketch=1;orthogonalLoop=1;jettySize=auto;html=1;entryX=0.938;entryY=0;entryDx=0;entryDy=0;entryPerimeter=0;startArrow=classic;startFill=1;" edge="1" parent="1" source="opUjCVgP9MgVqrXwYfAH-42" target="opUjCVgP9MgVqrXwYfAH-21">
          <mxGeometry relative="1" as="geometry" />
        </mxCell>
        <mxCell id="opUjCVgP9MgVqrXwYfAH-42" value="i+7" style="rounded=1;whiteSpace=wrap;html=1;strokeWidth=2;fillWeight=4;hachureGap=8;hachureAngle=45;sketch=1;fillColor=#FFFFFF;" vertex="1" parent="1">
          <mxGeometry x="320" y="240" width="40" height="40" as="geometry" />
        </mxCell>
      </root>
    </mxGraphModel>
  </diagram>
  <diagram id="tnvw_iK9Qhco73b2E2sq" name="blobstore_create">
    <mxGraphModel dx="981" dy="637" grid="1" gridSize="10" guides="1" tooltips="1" connect="1" arrows="1" fold="1" page="1" pageScale="1" pageWidth="827" pageHeight="1169" math="0" shadow="0">
      <root>
        <mxCell id="c7zrl2oEoFyaDzueyGwf-0" />
        <mxCell id="c7zrl2oEoFyaDzueyGwf-1" parent="c7zrl2oEoFyaDzueyGwf-0" />
        <mxCell id="gT0azRC-j18u4p-eV2v2-0" style="edgeStyle=orthogonalEdgeStyle;curved=1;rounded=0;sketch=1;orthogonalLoop=1;jettySize=auto;html=1;entryX=0.5;entryY=0;entryDx=0;entryDy=0;dashed=1;" edge="1" parent="c7zrl2oEoFyaDzueyGwf-1" source="gT0azRC-j18u4p-eV2v2-1" target="gT0azRC-j18u4p-eV2v2-2">
          <mxGeometry relative="1" as="geometry" />
        </mxCell>
        <mxCell id="gT0azRC-j18u4p-eV2v2-1" value="spdk_bs_init" style="rounded=1;whiteSpace=wrap;html=1;strokeWidth=2;fillWeight=4;hachureGap=8;hachureAngle=45;sketch=1;fillColor=#FFFFFF;" vertex="1" parent="c7zrl2oEoFyaDzueyGwf-1">
          <mxGeometry x="40" y="40" width="120" height="40" as="geometry" />
        </mxCell>
        <mxCell id="gT0azRC-j18u4p-eV2v2-2" value="spdk_bs_init" style="rounded=1;whiteSpace=wrap;html=1;strokeWidth=2;fillWeight=4;hachureGap=8;hachureAngle=45;sketch=1;fillColor=#FFFFFF;" vertex="1" parent="c7zrl2oEoFyaDzueyGwf-1">
          <mxGeometry x="40" y="100" width="120" height="40" as="geometry" />
        </mxCell>
      </root>
    </mxGraphModel>
  </diagram>
  <diagram id="5hm3U9hjmPRmfpAsOI34" name="blobstore_io">
    <mxGraphModel dx="813" dy="528" grid="1" gridSize="10" guides="1" tooltips="1" connect="1" arrows="1" fold="1" page="1" pageScale="1" pageWidth="827" pageHeight="1169" math="0" shadow="0">
      <root>
        <mxCell id="mbzQwVN3vlLNx5ZGX1TV-0" />
        <mxCell id="mbzQwVN3vlLNx5ZGX1TV-1" parent="mbzQwVN3vlLNx5ZGX1TV-0" />
        <mxCell id="XRnUVAyQcjOSUDLAM6YQ-0" style="edgeStyle=orthogonalEdgeStyle;curved=1;rounded=0;sketch=1;orthogonalLoop=1;jettySize=auto;html=1;entryX=0.5;entryY=0;entryDx=0;entryDy=0;dashed=1;" edge="1" parent="mbzQwVN3vlLNx5ZGX1TV-1" source="XRnUVAyQcjOSUDLAM6YQ-1" target="XRnUVAyQcjOSUDLAM6YQ-2">
          <mxGeometry relative="1" as="geometry" />
        </mxCell>
        <mxCell id="XRnUVAyQcjOSUDLAM6YQ-1" value="spdk_bs_init" style="rounded=1;whiteSpace=wrap;html=1;strokeWidth=2;fillWeight=4;hachureGap=8;hachureAngle=45;sketch=1;fillColor=#FFFFFF;" vertex="1" parent="mbzQwVN3vlLNx5ZGX1TV-1">
          <mxGeometry x="40" y="40" width="120" height="40" as="geometry" />
        </mxCell>
        <mxCell id="XRnUVAyQcjOSUDLAM6YQ-2" value="spdk_bs_init" style="rounded=1;whiteSpace=wrap;html=1;strokeWidth=2;fillWeight=4;hachureGap=8;hachureAngle=45;sketch=1;fillColor=#FFFFFF;" vertex="1" parent="mbzQwVN3vlLNx5ZGX1TV-1">
          <mxGeometry x="40" y="100" width="120" height="40" as="geometry" />
        </mxCell>
      </root>
    </mxGraphModel>
  </diagram>
</mxfile>
